<svg width="32" height="32" viewBox="0 0 32 32" fill="none" xmlns="http://www.w3.org/2000/svg">
  <!-- Background -->
  <rect width="32" height="32" rx="4" fill="url(#gradient)"/>
  
  <!-- Weather Cloud -->
  <path d="M16 8C18 8 19.5 9.5 19.5 11.5C21.5 11.5 23 13 23 15C23 17 21.5 18.5 19.5 18.5H11C9.3 18.5 8 17.2 8 15.5C8 13.8 9.3 12.5 11 12.5C11.3 12.5 11.6 12.6 11.9 12.7C12.8 10.5 14.2 8 16 8Z" fill="white" fill-opacity="0.9"/>
  
  <!-- Music Notes -->
  <circle cx="13" cy="22" r="1.5" fill="#60A5FA"/>
  <circle cx="19" cy="22" r="1.5" fill="#60A5FA"/>
  <path d="M13 20.5V16L16 15V19.5" stroke="#60A5FA" stroke-width="0.8" stroke-linecap="round"/>
  <path d="M19 20.5V16L22 15V19.5" stroke="#60A5FA" stroke-width="0.8" stroke-linecap="round"/>
  
  <!-- Sun -->
  <circle cx="16" cy="10" r="1" fill="#FCD34D" fill-opacity="0.8"/>
  
  <defs>
    <linearGradient id="gradient" x1="0%" y1="0%" x2="100%" y2="100%">
      <stop offset="0%" style="stop-color:#1e293b;stop-opacity:1" />
      <stop offset="100%" style="stop-color:#0f172a;stop-opacity:1" />
    </linearGradient>
  </defs>
</svg>